<svg xmlns="http://www.w3.org/2000/svg" width="174" height="189" viewBox="0 0 174 189" version="1.1"><path d="" stroke="none" fill="#000000" fill-rule="evenodd"/><path d="M 23 93.979 L 23 167 44.500 167 L 66 167 65.921 157.750 C 65.878 152.662, 65.615 149.063, 65.338 149.750 C 65.060 150.437, 64.232 151, 63.496 151 C 62.761 151, 61.862 152.350, 61.500 154 C 61.138 155.650, 60.469 157, 60.014 157 C 59.559 157, 59.423 157.900, 59.710 159 C 60.206 160.898, 59.741 161, 50.617 161 C 44.872 161, 41 161.403, 41 162 C 41 162.550, 38.598 163, 35.663 163 L 30.326 163 29.664 115.750 C 29.300 89.763, 29.002 59.163, 29.001 47.750 L 29 27 44.252 27 L 59.503 27 71.564 45.750 C 78.198 56.063, 90.122 74.665, 98.063 87.088 L 112.500 109.676 112.761 68.338 L 113.022 27 128.554 27 L 144.085 27 143.793 45.552 C 143.507 63.687, 143.545 64.093, 145.500 63.566 C 146.600 63.270, 148.063 63.021, 148.750 63.014 C 149.710 63.003, 150 58.126, 150 42 L 150 21 128.513 21 L 107.026 21 106.763 54.919 L 106.500 88.838 84.990 55.169 L 63.480 21.500 43.240 21.229 L 23 20.959 23 93.979 M 143.638 77.500 C 143.322 78.325, 143.444 79, 143.909 79 C 144.374 79, 145.315 78.325, 146 77.500 C 147.013 76.279, 146.963 76, 145.729 76 C 144.896 76, 143.955 76.675, 143.638 77.500 M 60 110.833 C 60 138.759, 60.198 143, 61.500 143 C 62.325 143, 63 142.325, 63 141.500 C 63 140.675, 63.666 140, 64.479 140 C 65.727 140, 66.001 136.840, 66.229 119.786 L 66.500 99.572 88 133.281 L 109.500 166.990 129.750 166.995 L 150 167 150 151.878 C 150 138.892, 149.798 136.922, 148.573 137.940 C 146.551 139.618, 144.006 147.618, 143.965 152.428 C 143.945 154.668, 143.286 157.625, 142.500 159 C 140.404 162.666, 140.688 163.435, 143.465 161.615 C 146.802 159.428, 147.417 159.583, 145 162 C 142.471 164.529, 132.894 165.037, 134.973 162.533 C 136.030 161.259, 134.648 161.028, 124.530 160.783 L 112.870 160.500 111.185 157.500 C 110.258 155.850, 109.390 154.315, 109.256 154.089 C 109.122 153.864, 108.040 154.539, 106.851 155.589 L 104.690 157.500 106.516 154.665 C 107.641 152.917, 107.961 151.574, 107.349 151.165 C 106.803 150.799, 98.015 137.450, 87.820 121.500 C 65.498 86.576, 61.105 79.771, 60.479 79.145 C 60.215 78.882, 60 93.142, 60 110.833 M 146 84.077 L 143.500 84.997 143.799 100.498 C 143.963 109.024, 144.426 116, 144.826 116 C 145.227 116, 146.555 115.299, 147.777 114.443 C 149.854 112.989, 150 112.135, 150 101.443 C 150 95.149, 149.640 90, 149.200 90 C 148.760 90, 147.788 90.563, 147.040 91.250 C 146.292 91.938, 146.652 90.872, 147.840 88.882 C 151.203 83.249, 150.838 82.298, 146 84.077 M 65.079 144.583 C 65.127 145.748, 65.364 145.985, 65.683 145.188 C 65.972 144.466, 65.936 143.603, 65.604 143.271 C 65.272 142.939, 65.036 143.529, 65.079 144.583" stroke="none" fill="#7d4d08" fill-rule="evenodd"/><path d="M 29 63.500 C 29 86.012, 29.366 100, 29.955 100 C 30.480 100, 31.172 98.313, 31.493 96.250 C 32.447 90.113, 34.202 87.591, 38.215 86.590 C 41.174 85.852, 42.396 86.041, 44.682 87.590 C 46.232 88.641, 48.620 89.728, 49.988 90.008 C 53.661 90.757, 53.526 93.182, 49.545 97.946 C 47.595 100.280, 46 102.796, 46 103.538 C 46 104.280, 45.041 105.558, 43.869 106.380 C 42.352 107.441, 41.958 108.396, 42.502 109.686 C 42.923 110.684, 43.182 113.075, 43.078 115 C 42.855 119.122, 45.031 127.946, 47.583 133.271 C 49.127 136.492, 56.980 143, 59.324 143 C 59.680 143, 60.091 128.557, 60.236 110.905 L 60.500 78.810 81.500 111.544 C 93.050 129.548, 103.376 145.791, 104.447 147.639 C 105.517 149.488, 106.941 151, 107.610 151 C 108.279 151, 110.221 149.088, 111.926 146.750 C 116.642 140.282, 132.609 124.513, 138.665 120.342 L 144.049 116.634 143.774 101.067 C 143.502 85.591, 143.487 85.501, 141.250 85.738 C 138.421 86.038, 138.439 85.720, 141.500 81.215 C 142.875 79.191, 144 77.201, 144 76.793 C 144 75.721, 138.195 76.949, 133.250 79.067 C 127.823 81.392, 127.594 79.684, 132.750 75.343 C 134.812 73.607, 136.228 71.910, 135.896 71.572 C 135.564 71.235, 132.987 71.453, 130.169 72.057 C 127.352 72.661, 124.249 73.002, 123.273 72.814 C 120.476 72.275, 128.037 68.062, 136.360 65.521 L 143.500 63.342 143.773 45.171 L 144.045 27 128.534 27 L 113.022 27 112.761 68.338 L 112.500 109.676 98.063 87.088 C 90.122 74.665, 78.198 56.063, 71.564 45.750 L 59.503 27 44.252 27 L 29 27 29 63.500 M 140.663 141.750 C 139.364 143.813, 137.588 146.883, 136.716 148.573 C 135.084 151.739, 132.274 154.607, 131.531 153.864 C 131.104 153.437, 132.102 148.337, 133.413 144.250 C 133.999 142.423, 133.757 142, 132.122 142 C 130.121 142, 121 152.053, 121 154.258 C 121 154.850, 120.762 155.096, 120.472 154.805 C 120.182 154.515, 120.423 153.017, 121.009 151.476 C 122.774 146.834, 120.663 146.406, 116.144 150.489 C 113.906 152.510, 111.608 153.876, 111.038 153.523 C 109.436 152.534, 109.810 155.781, 111.615 158.535 C 113.174 160.915, 113.621 161, 124.571 161 C 135.113 161, 136.178 160.818, 139.706 158.421 L 143.500 155.842 143.500 146.924 C 143.500 142.019, 143.393 138.005, 143.263 138.003 C 143.132 138.001, 141.962 139.688, 140.663 141.750 M 41 144.839 C 41 146.649, 44.699 149, 47.547 149 C 50.064 149, 49.139 151.179, 45 155 C 42.800 157.031, 41 159.212, 41 159.846 C 41 160.632, 43.868 161, 50 161 C 57.958 161, 59 160.794, 59 159.223 C 59 158.245, 59.760 156.361, 60.688 155.035 C 61.892 153.316, 62.033 152.511, 61.182 152.227 C 60.525 152.008, 60.234 151.431, 60.535 150.944 C 60.836 150.457, 59.826 149.800, 58.291 149.484 C 51.267 148.037, 48.192 146.869, 46.508 145.009 C 44.202 142.461, 41 142.363, 41 144.839 M 145.333 160.667 C 145.700 161.033, 146.300 161.033, 146.667 160.667 C 147.033 160.300, 146.733 160, 146 160 C 145.267 160, 144.967 160.300, 145.333 160.667" stroke="none" fill="#f8aa22" fill-rule="evenodd"/></svg>