<svg xmlns="http://www.w3.org/2000/svg" width="1284" height="281" viewBox="0 0 1284 281" version="1.1"><path d="M 459.776 87.733 C 462.128 87.945, 465.728 87.942, 467.776 87.727 C 469.824 87.512, 467.900 87.339, 463.500 87.343 C 459.100 87.346, 457.424 87.522, 459.776 87.733 M 451.250 134.735 C 453.863 134.941, 458.137 134.941, 460.750 134.735 C 463.363 134.529, 461.225 134.360, 456 134.360 C 450.775 134.360, 448.637 134.529, 451.250 134.735" stroke="none" fill="#b9b9b9" fill-rule="evenodd"/><path d="M 305.425 12.336 C 305.143 13.071, 305.044 26.684, 305.206 42.588 L 305.500 71.504 301.933 69.738 C 297.435 67.511, 285.896 65.036, 280 65.032 C 273.539 65.028, 263.473 67.618, 257.671 70.776 C 245.797 77.238, 235.157 92.064, 234.212 103.463 L 233.771 108.777 228.389 105.007 C 225.400 102.914, 219.244 100.039, 214.540 98.542 C 205.853 95.775, 201 92.893, 201 90.499 C 201 85.521, 211.131 84.500, 222.099 88.372 L 228.697 90.701 233.366 81.302 L 238.035 71.903 233.435 69.868 C 216.419 62.341, 191.431 64.460, 181.162 74.301 C 171.461 83.599, 170.607 97.279, 179.149 106.546 C 183.835 111.629, 188.521 114.525, 199.269 118.982 C 203.542 120.753, 207.504 123.074, 208.074 124.139 C 210.298 128.294, 206.351 132.001, 199.703 131.999 C 196.349 131.998, 184.780 127.009, 181.719 124.243 C 179.469 122.211, 178.954 122.729, 172.540 133.465 C 169.114 139.201, 168.035 141.860, 168.687 142.965 C 170.277 145.659, 182.232 150.976, 190.500 152.665 C 197.313 154.057, 199.984 154.128, 208.500 153.146 C 224.715 151.275, 235.963 144.278, 237.628 135.026 C 238.598 129.636, 238.971 129.564, 241.919 134.198 C 248.371 144.343, 262.376 152.215, 276.358 153.555 C 283.381 154.229, 296.321 152.040, 302.040 149.210 C 305.569 147.464, 305.691 147.464, 305.238 149.197 C 304.800 150.874, 305.792 151, 319.383 151 L 334 151 334.044 127.250 C 334.098 97.757, 334.952 94.619, 344.210 89.894 C 351.194 86.329, 358.211 88.313, 363.408 95.321 C 365.386 97.988, 365.517 99.582, 365.811 124.571 L 366.121 151 380.561 151 L 395 151 395.037 138.250 L 395.073 125.500 397.644 130.816 C 400.768 137.274, 409.026 145.953, 414.899 148.948 C 428.616 155.946, 445.884 154.692, 457.020 145.890 L 462 141.953 462 146.477 L 462 151 476 151 L 490 151 490 109.500 L 490 68 475.500 68 L 461 68 461 71.674 L 461 75.349 458.750 73.287 C 451.932 67.041, 438.387 63.846, 427.347 65.880 C 411.959 68.716, 401.833 77.569, 395.371 93.838 C 394.576 95.840, 394.414 95.515, 394.243 91.579 C 393.716 79.484, 383.756 69.875, 368.136 66.391 C 355.974 63.679, 346.492 65.947, 338.029 73.593 C 333.977 77.254, 333.812 77.310, 334.012 74.955 C 334.127 73.605, 334.172 58.663, 334.111 41.750 L 334 11 319.969 11 C 309.185 11, 305.819 11.309, 305.425 12.336 M 495.601 11.837 C 494.647 13.381, 495.073 33, 496.061 33 C 496.577 33, 497 30.481, 497 27.401 C 497 22.485, 497.361 21.465, 499.964 19.033 C 503.030 16.170, 506.731 15, 512.725 15 C 515.363 15, 517.043 15.843, 519.700 18.500 C 521.625 20.425, 523.629 22, 524.152 22 C 524.676 22, 524.969 19.638, 524.802 16.750 L 524.500 11.500 510.326 11.223 C 502.530 11.071, 495.904 11.347, 495.601 11.837 M 530 16.500 C 530 19.862, 530.431 22, 531.109 22 C 531.856 22, 531.977 23.226, 531.480 25.750 C 531.074 27.813, 530.558 45.763, 530.335 65.639 L 529.929 101.778 534.715 105.286 C 540.579 109.584, 547.215 110.703, 547.841 107.500 C 548.308 105.106, 549.823 103.995, 551.659 104.700 C 553.335 105.343, 553.400 108.200, 551.775 109.825 C 550.808 110.792, 550.808 111.464, 551.775 113.011 C 554.322 117.090, 552.875 121.391, 548.094 123.950 C 546.897 124.590, 545.468 128.463, 543.576 136.193 C 542.055 142.412, 540.597 148.287, 540.337 149.250 C 539.912 150.828, 540.808 151, 549.433 151 L 559 151 559 134.790 L 559 118.579 575.319 134.790 L 591.637 151 609.819 151 C 619.818 151, 628 150.658, 628 150.241 C 628 149.824, 618.550 140.040, 607 128.500 L 586 107.518 605.741 87.759 L 625.481 68 606.503 68 L 587.525 68 573.263 82.237 L 559 96.474 559 53.737 L 559 11 544.500 11 L 530 11 530 16.500 M 1071.875 56.223 C 1071.806 81.125, 1071.449 99.670, 1071.082 97.434 C 1069.213 86.053, 1057.607 72.242, 1046.383 68.042 C 1038.152 64.962, 1029.862 64.409, 1021.998 66.414 C 1015.645 68.034, 1005 74.043, 1005 76.010 C 1005 76.555, 1004.659 77, 1004.243 77 C 1003.826 77, 1003.647 74.975, 1003.843 72.500 L 1004.201 68 989.601 68 L 975 68 975 130.500 L 975 193 989.500 193 L 1004 193 1004 168.452 L 1004 143.904 1008.250 146.828 C 1017.320 153.067, 1029.258 155.192, 1040.469 152.562 C 1054.460 149.280, 1064.902 139.384, 1070.550 124.055 C 1071.731 120.847, 1071.866 121.991, 1071.930 135.750 L 1072 151 1086.500 151 L 1101 151 1101 125.950 C 1101 98.271, 1101.098 97.755, 1107.428 92.198 C 1114.126 86.317, 1123.598 86.986, 1128.724 93.702 L 1131.500 97.340 1131.796 124.170 L 1132.092 151 1146.501 151 L 1160.909 151 1161.540 147.641 C 1161.886 145.793, 1162.017 131.956, 1161.829 116.891 C 1161.506 90.824, 1161.378 89.258, 1159.193 84.500 C 1154.909 75.169, 1147.406 69.600, 1134.751 66.358 C 1123.809 63.554, 1112.992 66.087, 1104.157 73.522 L 1101.028 76.154 1100.764 43.827 L 1100.500 11.500 1086.250 11.223 L 1072 10.945 1071.875 56.223 M 146.500 17.835 C 139.595 21.117, 136 26.513, 136 33.597 C 136 43.982, 146.290 52.349, 156.667 50.403 C 160.914 49.606, 167.230 44.273, 169.007 39.984 C 170.702 35.890, 169.838 26.990, 167.433 23.785 C 162.340 16.999, 153.529 14.495, 146.500 17.835 M 18 83.975 L 18 151 33.500 151 L 49 151 49.021 109.750 L 49.042 68.500 59.271 84.226 C 64.897 92.876, 76.846 111.438, 85.825 125.476 L 102.151 151 117.575 151 L 133 151 133 84 L 133 17 117.478 17 L 101.957 17 102.228 58.500 C 102.378 81.326, 102.423 100.001, 102.329 100 C 102.235 100, 97.642 92.912, 92.123 84.250 C 86.603 75.587, 74.737 57.025, 65.752 43 L 49.416 17.500 33.708 17.225 L 18 16.949 18 83.975 M 521.586 41.401 C 520.272 44.372, 518.898 47.747, 518.531 48.901 C 518.054 50.404, 517.033 51, 514.933 51 C 513.320 51, 512 51.380, 512 51.845 C 512 53.295, 515.570 56, 517.484 56 C 519.252 56, 519.252 56.064, 517.484 58.017 C 516.480 59.127, 515.505 61.532, 515.317 63.363 C 514.815 68.262, 520.545 89.990, 522.983 92.428 L 525 94.444 525 65.222 C 525 49.150, 524.769 36, 524.487 36 C 524.205 36, 522.900 38.430, 521.586 41.401 M 654.763 66.033 C 637.866 68.878, 624.839 78.402, 618.263 92.718 C 614.765 100.333, 613.975 112.962, 616.462 121.516 C 621.420 138.572, 635.052 149.436, 655.735 152.817 C 664.513 154.251, 666.169 154.248, 674.800 152.780 C 687.557 150.609, 695.217 146.633, 703.446 137.910 C 706.949 134.197, 710.129 130.168, 710.513 128.958 C 711.151 126.950, 711.365 127.100, 712.962 130.666 C 715.610 136.581, 725.369 146.550, 731.322 149.421 C 743.451 155.271, 760.544 155.105, 771.764 149.029 L 777.274 146.044 776.746 151.860 C 776.066 159.368, 773.938 163.351, 768.791 166.754 C 765.024 169.245, 763.797 169.499, 755.569 169.486 C 745.519 169.471, 741.784 168.121, 736.683 162.661 L 733.842 159.619 722.421 165.304 C 716.139 168.431, 711 171.599, 711 172.344 C 711 174.316, 716.052 180.970, 720.533 184.899 C 729.179 192.480, 744.803 196.685, 760.500 195.655 C 775.513 194.670, 786.738 190.315, 794.644 182.408 C 799.638 177.415, 805.006 167.080, 804.985 162.500 C 804.973 159.793, 804.509 160.232, 800.236 167 C 795.911 173.849, 795.472 174.259, 795.181 171.727 C 795.006 170.202, 795.516 166.728, 796.314 164.005 C 797.669 159.383, 797.651 159.116, 796.046 159.975 C 792.898 161.660, 786.836 169.157, 784.413 174.360 C 781.684 180.221, 781.353 179.001, 783.500 171 C 784.312 167.975, 784.982 165.353, 784.988 165.173 C 784.995 164.993, 782.568 166.923, 779.596 169.462 C 776.048 172.493, 774.038 173.636, 773.742 172.789 C 773.408 171.832, 772.740 171.991, 771.146 173.405 C 763.774 179.948, 776.150 162.878, 786.794 151.820 C 791.390 147.046, 797.591 141.459, 800.575 139.404 L 806 135.668 806 119.725 L 806 103.783 803.419 104.431 L 800.838 105.079 803.419 101.695 C 804.839 99.834, 806 97.510, 806 96.531 C 806 95.058, 805.442 94.862, 802.774 95.395 C 801 95.750, 797.601 96.983, 795.222 98.135 C 792.842 99.287, 790.679 100.012, 790.413 99.746 C 790.148 99.481, 792.519 96.899, 795.682 94.007 L 801.434 88.751 796.967 89.502 C 794.510 89.915, 790.496 90.855, 788.047 91.590 C 785.597 92.325, 783.414 92.747, 783.195 92.528 C 782.272 91.605, 793.021 85.826, 799.250 83.896 L 806 81.805 806 74.903 L 806 68 791.500 68 L 777 68 777 71.466 L 777 74.932 772.750 72.109 C 765.267 67.138, 759.420 65.493, 749.500 65.568 C 737.431 65.658, 731.034 68.166, 722.493 76.155 C 718.989 79.434, 715.058 84.249, 713.759 86.856 L 711.397 91.595 708.949 87.690 C 705.417 82.057, 695.946 73.610, 689.780 70.593 C 680.339 65.974, 666.114 64.122, 654.763 66.033 M 857 66.649 C 850.689 68.828, 843.846 73.970, 841.213 78.512 C 840.253 80.169, 840.056 79.460, 840.030 74.250 L 840 68 825.500 68 L 811 68 811 74.353 L 811 80.706 820.250 81.282 C 825.337 81.599, 832.538 82.808, 836.250 83.969 L 843 86.080 843 91.040 C 843 93.768, 843.205 96, 843.456 96 C 843.706 96, 845.569 94.875, 847.595 93.500 C 852.307 90.303, 861.352 90.069, 867.764 92.979 L 872.027 94.915 878.071 82.859 C 884.990 69.057, 885.061 69.425, 874.934 66.569 C 868.018 64.619, 862.813 64.642, 857 66.649 M 903.500 66.409 C 892.137 69.225, 882.657 76.995, 877.156 88.003 C 873.019 96.282, 871.624 103.761, 872.332 113.865 C 873.697 133.327, 886.407 148.504, 904.768 152.594 C 917.098 155.341, 928.676 152.614, 937.472 144.890 L 941 141.793 941 146.396 L 941 151 955.500 151 L 970 151 970 109.500 L 970 68 955.607 68 C 939.942 68, 939.273 68.256, 940.646 73.724 L 941.289 76.289 939.179 74.179 C 936.126 71.126, 928.319 67.423, 922.201 66.124 C 915.600 64.724, 909.954 64.810, 903.500 66.409 M 138 109.500 L 138 151 152.500 151 C 166.857 151, 167 150.978, 167.044 148.750 C 167.524 124.401, 167.604 90.650, 167.205 80.750 L 166.692 68 152.346 68 L 138 68 138 109.500 M 1153.437 69.696 C 1154.302 71.951, 1175.928 110.292, 1176.822 111.155 C 1177.195 111.515, 1180.650 110.979, 1184.500 109.963 C 1188.350 108.947, 1194.987 108.089, 1199.250 108.058 C 1203.513 108.026, 1206.983 107.662, 1206.961 107.250 C 1206.940 106.838, 1202.273 97.950, 1196.591 87.500 L 1186.259 68.500 1169.513 68.225 C 1153.930 67.970, 1152.814 68.072, 1153.437 69.696 M 1229 68.405 C 1229 68.628, 1231.056 70.015, 1233.568 71.487 C 1236.081 72.960, 1241.235 77.087, 1245.020 80.658 L 1251.904 87.152 1256.452 78.096 C 1258.953 73.115, 1261 68.806, 1261 68.520 C 1261 68.234, 1253.800 68, 1245 68 C 1236.200 68, 1229 68.182, 1229 68.405 M 1226.021 72.950 C 1225.311 74.663, 1224.904 76.166, 1225.115 76.290 C 1226.788 77.271, 1235.530 79.803, 1235.915 79.418 C 1236.184 79.149, 1234.358 76.884, 1231.857 74.383 L 1227.310 69.837 1226.021 72.950 M 301.801 85.065 L 298.102 93.104 295.288 91.649 C 287.466 87.604, 277.402 88.835, 270.999 94.620 C 260.972 103.678, 263.379 121.397, 275.500 127.766 C 279.381 129.805, 289.320 129.741, 294.321 127.645 L 298.142 126.043 301.821 133.871 L 305.500 141.698 305.500 109.349 C 305.500 91.557, 305.500 77.006, 305.500 77.013 C 305.500 77.021, 303.836 80.644, 301.801 85.065 M 429.449 81.468 C 428.652 83.375, 428 85.348, 428 85.851 C 428 86.922, 424.376 88.043, 423.558 87.225 C 423.251 86.918, 423 85.890, 423 84.940 C 423 83.034, 421.067 82, 417.500 82 C 413.868 82, 412 83.043, 412 85.072 C 412 86.094, 410.988 87.463, 409.750 88.115 C 408.512 88.766, 407.169 89.795, 406.765 90.400 C 406.361 91.005, 406.024 100.737, 406.015 112.027 C 406.003 129.006, 406.269 132.939, 407.557 134.777 C 409.110 136.995, 409.183 137, 440.984 137 L 472.855 137 474.927 134.365 C 476.865 131.901, 477 130.447, 477 111.976 C 477 87.068, 477.306 87.659, 464.134 87.152 L 455.091 86.804 453.900 83.152 C 453.246 81.143, 452.213 79.169, 451.605 78.765 C 450.997 78.361, 446.090 78.024, 440.699 78.015 L 430.898 78 429.449 81.468 M 1216.692 92.822 C 1213.001 100.895, 1209.986 107.838, 1209.991 108.250 C 1209.996 108.662, 1210.883 109, 1211.962 109 C 1214.151 109, 1226.512 112.889, 1232.166 115.357 L 1235.831 116.956 1237.871 113.734 C 1238.994 111.962, 1239.543 110.143, 1239.092 109.692 C 1238.642 109.242, 1236.074 108.546, 1233.387 108.146 L 1228.500 107.419 1233.428 105.710 C 1236.139 104.769, 1239.176 104, 1240.178 104 C 1243.556 104, 1242.037 102.508, 1233.568 97.510 C 1224.646 92.246, 1224.309 91.042, 1231.750 91.015 C 1234.088 91.007, 1236 90.591, 1236 90.092 C 1236 88.884, 1227.821 80.510, 1225.349 79.187 C 1223.565 78.232, 1222.836 79.379, 1216.692 92.822 M 431.533 83.259 C 430.788 85.030, 430.417 86.865, 430.708 87.336 C 431.453 88.542, 451.301 87.596, 451.722 86.334 C 451.911 85.767, 451.639 84.180, 451.117 82.808 C 450.213 80.430, 449.763 80.307, 441.528 80.175 L 432.888 80.037 431.533 83.259 M 440.250 82.804 C 434.054 83.258, 435.045 85, 441.500 85 C 444.525 85, 447 84.598, 447 84.107 C 447 82.819, 445.086 82.449, 440.250 82.804 M 409.029 92.423 C 408.523 93.756, 408.205 96.118, 408.323 97.673 L 408.538 100.500 417.092 100.786 C 425.366 101.063, 425.683 100.991, 426.783 98.577 C 427.408 97.204, 429.738 94.878, 431.960 93.408 C 434.182 91.937, 436 90.569, 436 90.367 C 436 90.165, 430.139 90, 422.975 90 C 410.113 90, 409.939 90.030, 409.029 92.423 M 450.384 91.309 C 451.420 91.964, 453.510 93.513, 455.028 94.750 C 456.547 95.987, 458.030 97, 458.325 97 C 458.620 97, 459.005 95.987, 459.180 94.750 C 459.449 92.859, 460.212 92.449, 463.964 92.182 C 469.148 91.813, 471.659 93.900, 469.926 97.138 C 469.157 98.575, 467.782 99, 463.906 99 C 460.811 99, 459.119 99.384, 459.500 100 C 459.840 100.550, 463.241 101, 467.059 101 L 474 101 474 96.700 C 474 94.335, 473.460 91.860, 472.800 91.200 C 471.998 90.398, 467.772 90.019, 460.050 90.059 C 450.710 90.106, 448.861 90.346, 450.384 91.309 M 658.791 90.988 C 648.033 94.231, 642.571 108.358, 647.977 118.956 C 653.564 129.906, 670.144 131.998, 678.702 122.831 C 692.109 108.472, 677.627 85.311, 658.791 90.988 M 751.007 91.532 C 738.355 97.240, 735.212 113.448, 744.882 123.118 C 753.767 132.002, 769.473 129.834, 775.023 118.956 C 777.680 113.747, 777.661 105.216, 774.980 99.961 C 770.918 91.999, 759.146 87.860, 751.007 91.532 M 914.500 91.840 C 897.942 99.738, 899.549 123.814, 916.913 127.979 C 926.911 130.378, 937.101 125.284, 940.024 116.428 C 941.825 110.969, 940.815 102.829, 937.762 98.216 C 933.077 91.137, 922.216 88.160, 914.500 91.840 M 1015.655 91.459 C 1007.727 94.286, 1003.989 100.149, 1004.016 109.718 C 1004.049 121.073, 1011.672 128.521, 1023.122 128.387 C 1032.584 128.276, 1038.949 123.055, 1041.046 113.684 C 1044.502 98.243, 1030.644 86.114, 1015.655 91.459 M 821 103.665 C 818.525 104.528, 815.263 106.112, 813.750 107.185 C 811.024 109.119, 811 109.237, 811 120.568 C 811 126.856, 811.388 132, 811.862 132 C 812.336 132, 815.606 130.693, 819.129 129.096 C 822.652 127.498, 828.120 125.440, 831.280 124.521 C 835.727 123.228, 837.362 122.201, 838.513 119.975 C 839.331 118.393, 840 116.578, 840 115.941 C 840 114.483, 835.962 115.395, 830.500 118.087 L 826.500 120.059 829.244 117.582 C 830.754 116.220, 832.775 114.666, 833.736 114.128 C 837.113 112.238, 834.420 112.165, 829 114 C 825.987 115.020, 823.384 115.717, 823.216 115.549 C 823.048 115.381, 824.335 113.819, 826.077 112.077 C 827.819 110.335, 828.978 108.645, 828.654 108.321 C 827.879 107.545, 822.666 109.738, 818.399 112.633 C 812.555 116.599, 814.687 113.309, 821.500 107.850 C 825.075 104.985, 828 102.497, 828 102.321 C 828 101.643, 825.324 102.157, 821 103.665 M 408.885 103.500 C 408.822 103.500, 408.649 109.671, 408.499 117.214 C 408.299 127.284, 408.573 131.402, 409.532 132.714 C 410.736 134.359, 413.174 134.500, 440.478 134.500 C 456.779 134.500, 470.990 134.177, 472.058 133.782 C 473.861 133.116, 474 132.003, 474 118.192 L 474 103.320 468.250 103.624 C 465.087 103.792, 462.263 103.945, 461.974 103.964 C 461.684 103.984, 461.616 105.771, 461.822 107.935 C 462.892 119.147, 452.823 129.919, 441.218 129.978 C 435.468 130.008, 431.120 128.039, 427.284 123.670 C 423.768 119.667, 422.607 115.411, 423.153 108.540 C 423.352 106.043, 423.286 103.977, 423.007 103.949 C 422.636 103.912, 409.688 103.500, 408.885 103.500 M 512.182 112.617 C 512.450 115.894, 512.890 116.554, 515 116.846 C 516.375 117.036, 518.041 117.636, 518.702 118.178 C 519.932 119.188, 524.025 118.414, 523.969 117.183 C 523.929 116.296, 515.977 110.312, 513.654 109.421 C 512.094 108.822, 511.904 109.234, 512.182 112.617 M 530 135.105 L 530 151 533.981 151 C 537.505 151, 538.034 150.684, 538.590 148.250 C 538.935 146.738, 540.293 141.143, 541.609 135.819 C 544.699 123.307, 544.665 122.518, 540.968 120.987 C 539.300 120.296, 537.703 119.964, 537.418 120.249 C 537.133 120.534, 535.347 120.417, 533.450 119.989 L 530 119.211 530 135.105 M 1185.750 121.716 C 1182.553 122.201, 1182.425 122.719, 1184.772 125.678 L 1186.500 127.856 1190.417 124.428 L 1194.333 121 1191.417 121.150 C 1189.812 121.232, 1187.263 121.487, 1185.750 121.716 M 412.452 124.412 C 411.485 125.119, 410.952 126.616, 411.155 128.056 C 411.425 129.969, 412.178 130.566, 414.622 130.804 C 416.827 131.018, 417.936 130.610, 418.395 129.413 C 419.959 125.339, 415.879 121.906, 412.452 124.412 M 521.273 128.994 C 520.334 130.091, 518.112 131.468, 516.335 132.054 C 513.523 132.983, 513.019 133.687, 512.448 137.498 C 512.028 140.299, 512.307 143.427, 513.224 146.187 C 514.640 150.449, 514.717 150.504, 519.741 150.799 L 524.824 151.098 524.930 139.049 C 525.038 126.609, 524.525 125.196, 521.273 128.994 M 1191.250 129.119 C 1187.510 130.199, 1187.473 130.354, 1189.876 134.863 L 1191.669 138.227 1194.068 134.363 C 1195.387 132.239, 1196.834 129.938, 1197.283 129.250 C 1198.250 127.769, 1196.088 127.722, 1191.250 129.119 M 1202.435 130.890 C 1194.556 134.469, 1191.494 138.304, 1182.021 156.460 C 1177.059 165.969, 1173 174.068, 1173 174.459 C 1173 174.849, 1175.689 172.735, 1178.975 169.761 C 1185.794 163.590, 1200.987 155.324, 1211.846 151.877 C 1218.449 149.780, 1219.391 149.154, 1221.166 145.675 C 1222.251 143.547, 1222.871 141.537, 1222.542 141.208 C 1222.213 140.880, 1219.472 141.823, 1216.450 143.305 C 1209.122 146.899, 1208.661 146.702, 1214.571 142.500 C 1219.821 138.767, 1218.913 138.061, 1212 140.500 C 1205.799 142.688, 1205.441 142.393, 1209.569 138.500 C 1212.136 136.079, 1212.771 135, 1211.629 135 C 1209.656 135, 1201.204 138.860, 1200.428 140.116 C 1200.128 140.602, 1199.432 141, 1198.882 141 C 1197.240 141, 1198.819 139.224, 1205.127 133.974 C 1210.059 129.869, 1210.701 129.004, 1208.802 129.022 C 1207.536 129.034, 1204.671 129.875, 1202.435 130.890 M 836.365 148.417 L 833.500 150.937 836.133 150.968 C 838.022 150.991, 838.930 150.376, 839.344 148.794 C 840.169 145.637, 839.607 145.566, 836.365 148.417 M 1198.756 177.703 C 1194.658 183.348, 1193.079 186.237, 1191.960 190.139 C 1191.197 192.802, 1191.334 193, 1193.942 193 C 1196.438 193, 1196.814 192.563, 1197.384 189.003 C 1197.735 186.804, 1199.148 182.460, 1200.524 179.349 C 1201.900 176.238, 1202.849 173.516, 1202.633 173.299 C 1202.416 173.083, 1200.672 175.065, 1198.756 177.703 M 1189.039 184.295 C 1188.277 185.508, 1186.787 187.963, 1185.728 189.750 L 1183.802 193 1186.774 193 C 1189.626 193, 1189.766 192.789, 1190.263 187.750 C 1190.548 184.863, 1190.701 182.408, 1190.603 182.295 C 1190.505 182.183, 1189.801 183.083, 1189.039 184.295 M 1176.070 189.236 L 1172.761 192.471 1175.130 193.084 C 1178.045 193.838, 1178.784 193.240, 1179.948 189.183 C 1181.102 185.159, 1180.227 185.171, 1176.070 189.236 M 619.237 228.218 C 613.623 229.673, 613 231.715, 613 248.667 C 613 263.316, 613.091 263.994, 615.413 266.694 C 617.417 269.024, 618.620 269.500, 622.500 269.500 C 628.894 269.500, 632 266.049, 632 258.944 C 632 254.139, 631.917 254, 629.057 254 C 626.311 254, 626.095 254.283, 625.807 258.250 C 625.534 262.035, 625.226 262.500, 623 262.500 L 620.500 262.500 620.500 248.500 L 620.500 234.500 623 234.500 C 625.167 234.500, 625.541 234.999, 625.810 238.250 C 626.093 241.663, 626.385 242, 629.060 242 C 631.864 242, 632 241.798, 632 237.635 C 632 229.949, 626.947 226.221, 619.237 228.218 M 1084.205 228.227 C 1080.562 229.171, 1078 233.213, 1078 238.016 C 1078 242.147, 1079.317 244.477, 1085.200 250.757 C 1089.324 255.157, 1090.075 256.541, 1089.813 259.257 C 1089.576 261.713, 1088.968 262.576, 1087.307 262.812 C 1085.497 263.070, 1084.997 262.502, 1084.446 259.562 C 1083.863 256.456, 1083.408 256, 1080.889 256 C 1078.192 256, 1078 256.262, 1078 259.944 C 1078 265.981, 1081.499 269.500, 1087.500 269.500 C 1093.813 269.500, 1097 266.033, 1097 259.167 C 1097 253.966, 1095.936 251.979, 1089.264 244.724 C 1085.926 241.095, 1084.947 239.295, 1085.186 237.224 C 1085.434 235.069, 1086.022 234.500, 1088 234.500 C 1089.984 234.500, 1090.565 235.068, 1090.816 237.250 C 1091.081 239.553, 1091.610 240, 1094.066 240 C 1096.730 240, 1097 239.690, 1097 236.635 C 1097 229.981, 1091.467 226.345, 1084.205 228.227 M 469 248.500 L 469 269 472 269 L 475 269 475 248.500 L 475 228 472 228 L 469 228 469 248.500 M 485.714 228.620 C 484.808 229.525, 484.767 269, 485.671 269 C 486.040 269, 487.270 268.212, 488.404 267.250 C 490.367 265.583, 490.401 265.583, 489.110 267.250 C 487.894 268.821, 488.036 269, 490.500 269 C 492.899 269, 493.078 268.799, 491.922 267.406 C 490.796 266.049, 490.931 265.561, 492.824 264.132 C 494.993 262.497, 495.043 262.015, 494.775 245.477 L 494.500 228.500 490.464 228.203 C 488.244 228.040, 486.106 228.227, 485.714 228.620 M 505.710 228.623 C 504.675 229.659, 504.839 254, 505.881 254 C 506.366 254, 507.964 252.425, 509.432 250.500 C 513.766 244.818, 515.767 246.771, 512.300 253.300 C 510.920 255.898, 510.527 256.152, 510.208 254.650 C 509.638 251.966, 505.071 261.644, 505.031 265.621 L 505 268.742 511.500 268.883 L 518 269.024 518 264.012 C 518 258.466, 517.049 257.750, 514.615 261.465 C 513.727 262.820, 512.003 264.463, 510.784 265.115 C 508.638 266.264, 508.646 266.203, 511.034 263.167 C 518.661 253.472, 518.087 255.332, 517.780 241.305 L 517.500 228.500 511.960 228.206 C 508.913 228.045, 506.101 228.232, 505.710 228.623 M 528.022 238.208 C 528.047 249.781, 527.307 249.630, 535 239.632 C 538.966 234.478, 540.581 233.465, 541.406 235.615 C 541.720 236.434, 541.592 236.866, 541.120 236.574 C 540.649 236.283, 539.696 238.847, 539.002 242.272 C 538.308 245.698, 537.017 249.625, 536.135 251 C 534.335 253.804, 533.689 264.468, 535.151 267.250 C 535.792 268.471, 537.277 269, 540.062 269 L 544.054 269 543.777 248.750 L 543.500 228.500 535.750 228.208 L 528 227.916 528.022 238.208 M 554.667 228.667 C 554.300 229.033, 554 232.412, 554 236.175 C 554 242.783, 554.069 242.974, 556.015 241.759 C 557.783 240.654, 558.426 240.892, 561.265 243.699 C 563.044 245.459, 566.413 248.549, 568.750 250.566 L 573 254.233 573 241.116 L 573 228 564.167 228 C 559.308 228, 555.033 228.300, 554.667 228.667 M 583.698 228.635 C 583.314 229.019, 583 237.308, 583 247.056 C 583 269.770, 582.663 269.206, 596 268.794 L 605.500 268.500 605.500 248.500 L 605.500 228.500 594.948 228.218 C 589.145 228.063, 584.083 228.251, 583.698 228.635 M 643.607 245.704 C 642.077 255.492, 640.583 264.738, 640.288 266.250 C 639.797 268.761, 640.012 269, 642.768 269 C 645.841 269, 647 267.608, 647 263.918 C 647 262.356, 647.722 262, 650.889 262 C 654.541 262, 654.817 262.213, 655.434 265.500 C 656.033 268.692, 656.392 269, 659.520 269 C 662.722 269, 662.915 268.817, 662.428 266.250 C 662.141 264.738, 660.664 255.625, 659.146 246 L 656.387 228.500 651.388 228.204 L 646.389 227.909 643.607 245.704 M 671 248.500 L 671 269 674.500 269 L 678 269 678 261.500 C 678 254.128, 678.043 254, 680.550 254 C 688.831 254, 692.954 245.575, 689.956 234.779 C 688.483 229.478, 685.829 228, 677.777 228 L 671 228 671 248.500 M 697 231 C 697 233.762, 697.278 234, 700.500 234 L 704 234 704 251.500 L 704 269 707.500 269 L 711 269 711 251.500 L 711 234 714.500 234 C 717.722 234, 718 233.762, 718 231 L 718 228 707.500 228 L 697 228 697 231 M 725.867 229.750 C 725.665 230.713, 725.725 239.027, 726 248.226 C 726.470 263.957, 726.635 265.087, 728.778 267.226 C 732.265 270.707, 739.370 270.433, 742.587 266.694 C 744.944 263.954, 745 263.471, 745 245.944 L 745 228 742 228 L 739 228 738.986 243.250 C 738.970 261.069, 738.629 263, 735.500 263 C 732.472 263, 732.096 260.667, 732.436 244 C 732.587 236.575, 732.503 229.938, 732.249 229.250 C 731.521 227.284, 726.298 227.693, 725.867 229.750 M 755 248.500 L 755 269 758.500 269 L 762 269 762 261 C 762 253.714, 762.175 253, 763.965 253 C 766.784 253, 768 255.994, 768 262.934 L 768 269 771.500 269 L 775 269 774.976 263.750 C 774.946 257.186, 773.544 250.954, 771.862 249.915 C 770.865 249.299, 770.996 248.662, 772.451 247.054 C 773.874 245.482, 774.308 243.499, 774.264 238.780 C 774.213 233.339, 773.878 232.292, 771.547 230.287 C 769.329 228.379, 767.737 228, 761.944 228 L 755 228 755 248.500 M 784 248.500 L 784 269 787.500 269 L 791 269 791 248.500 L 791 228 787.500 228 L 784 228 784 248.500 M 801 248.500 L 801 269 804 269 L 807 269 807.079 254.250 L 807.159 239.500 808.525 245.500 C 809.277 248.800, 810.957 255.325, 812.259 260 L 814.627 268.500 818.314 268.810 L 822 269.121 822 248.560 L 822 228 819.033 228 L 816.066 228 815.783 239.250 L 815.500 250.500 812.614 239.250 L 809.727 228 805.364 228 L 801 228 801 248.500 M 833.924 230.581 C 831.576 233.080, 831.500 233.643, 831.500 248.500 C 831.500 263.214, 831.595 263.940, 833.845 266.335 C 836.850 269.533, 840.320 270.379, 844.618 268.961 C 849.466 267.361, 851 263.763, 851 253.995 L 851 245.890 846.250 246.195 C 841.900 246.474, 841.473 246.732, 841.184 249.250 C 840.954 251.248, 841.310 252, 842.486 252 C 845.046 252, 844.220 262.344, 841.620 262.839 C 838.588 263.416, 838.031 261.189, 838.031 248.500 C 838.031 235.811, 838.588 233.585, 841.620 234.160 C 842.988 234.420, 843.584 235.535, 843.810 238.258 C 844.104 241.795, 844.309 242, 847.560 242 C 850.834 242, 851 241.829, 851 238.450 C 851 234.318, 848.778 229.512, 846.455 228.621 C 845.565 228.280, 842.927 228, 840.593 228 C 837.323 228, 835.792 228.593, 833.924 230.581 M 890 248.445 L 890 269 893 269 L 896 269 896.150 255.250 C 896.232 247.688, 896.457 242.850, 896.649 244.500 C 896.840 246.150, 897.734 252.338, 898.634 258.250 L 900.270 269 903.555 269 C 907.459 269, 907.409 269.179, 910.344 244.500 C 910.540 242.850, 910.768 247.688, 910.850 255.250 L 911 269 913.937 269 L 916.874 269 917.187 250.750 C 917.594 227.019, 917.798 228, 912.463 228 C 907.551 228, 907.878 227.296, 905.959 242 C 905.349 246.675, 904.590 251.175, 904.272 252 C 903.955 252.825, 902.745 247.875, 901.583 241 L 899.472 228.500 894.736 228.195 L 890 227.890 890 248.445 M 930.913 229.282 C 927.615 231.815, 927 234.830, 927 248.484 C 927 264.235, 927.925 267.160, 933.483 268.994 C 936.152 269.875, 937.848 269.875, 940.517 268.994 C 946.074 267.160, 947 264.233, 947 248.500 C 947 234.392, 945.991 229.978, 942.455 228.621 C 939.742 227.580, 932.597 227.989, 930.913 229.282 M 957 248.500 L 957 269 960 269 L 963 269 963.102 258.250 L 963.204 247.500 964.592 256 C 966.784 269.419, 966.598 269, 970.357 269 L 973.677 269 975.088 258.750 L 976.500 248.500 976.785 258.750 L 977.070 269 980.535 269 L 984 269 984 248.445 L 984 227.890 979.250 228.195 L 974.500 228.500 972.454 242 L 970.407 255.500 968.656 244.500 C 965.774 226.394, 966.479 228, 961.421 228 L 957 228 957 248.500 M 994 248.500 L 994 269 1003 269 L 1012 269 1012 266 C 1012 263.027, 1011.950 263, 1006.450 263 L 1000.900 263 1001.200 257.250 L 1001.500 251.500 1005.811 251.190 C 1009.837 250.900, 1010.101 250.702, 1009.811 248.190 C 1009.535 245.799, 1009.028 245.466, 1005.250 245.193 L 1001 244.885 1001 239.443 L 1001 234 1006.500 234 C 1011.944 234, 1012 233.970, 1012 231 L 1012 228 1003 228 L 994 228 994 248.500 M 1021 248.500 L 1021 269 1024 269 L 1027 269 1027.079 254.250 L 1027.159 239.500 1028.525 245.500 C 1029.277 248.800, 1030.957 255.325, 1032.259 260 L 1034.627 268.500 1038.314 268.810 L 1042 269.121 1042 248.560 L 1042 228 1039.033 228 L 1036.066 228 1035.783 239.250 L 1035.500 250.500 1032.614 239.250 L 1029.727 228 1025.364 228 L 1021 228 1021 248.500 M 1050 231 C 1050 233.762, 1050.278 234, 1053.500 234 L 1057 234 1057 251.500 L 1057 269 1060.500 269 L 1064 269 1064 251.500 L 1064 234 1067 234 C 1069.667 234, 1070 233.667, 1070 231 L 1070 228 1060 228 L 1050 228 1050 231 M 678 241 C 678 248.205, 678.467 248.891, 682.066 246.965 C 683.487 246.204, 684 244.861, 684 241.899 C 684 236.884, 682.527 234, 679.965 234 C 678.199 234, 678 234.708, 678 241 M 762 240 C 762 245.662, 762.135 246, 764.393 246 C 766.948 246, 768 244.353, 768 240.352 C 768 236.776, 766.236 234, 763.965 234 C 762.230 234, 762 234.702, 762 240 M 934.464 235.233 C 934.174 235.988, 934.064 242.432, 934.219 249.553 L 934.500 262.500 937 262.500 L 939.500 262.500 939.500 248.500 C 939.500 234.735, 939.462 234.495, 937.246 234.180 C 936.005 234.004, 934.754 234.477, 934.464 235.233 M 650.852 240.500 C 650.521 241.050, 649.927 244.158, 649.533 247.407 C 649.139 250.655, 648.585 253.918, 648.301 254.657 C 647.937 255.606, 648.711 256, 650.938 256 C 653.951 256, 654.064 255.856, 653.490 252.750 C 653.159 250.963, 652.566 247.250, 652.172 244.500 C 651.777 241.750, 651.184 239.950, 650.852 240.500 M 533.155 245.225 C 532.032 246.997, 531.283 248.616, 531.489 248.822 C 532.151 249.484, 536.936 245.543, 536.969 244.309 C 537.037 241.706, 535.086 242.174, 533.155 245.225 M 557 246.500 C 557 249.899, 555.611 251.277, 554.732 248.750 C 554.492 248.063, 554.252 249.750, 554.197 252.500 C 554.120 256.318, 554.334 257.084, 555.102 255.742 C 555.656 254.775, 555.832 253.538, 555.495 252.992 C 554.821 251.902, 557.930 251.652, 560.395 252.598 C 562.102 253.253, 569.400 262.933, 568.709 263.624 C 568.473 263.860, 566.403 261.566, 564.108 258.527 C 561.813 255.487, 559.387 253, 558.718 253 C 556.506 253, 557.273 260.182, 559.750 262.659 C 560.987 263.897, 562 265.683, 562 266.629 C 562 268.104, 561.656 268.026, 559.585 266.080 C 557.184 263.824, 557.165 263.823, 556.085 265.840 C 555.488 266.956, 555 268.123, 555 268.434 C 555 268.745, 559.100 269, 564.111 269 C 572.838 269, 573.142 268.926, 571.340 267.250 C 570.305 266.288, 569.895 265.837, 570.429 266.250 C 572.452 267.812, 572.999 266.842, 572.967 261.750 C 572.936 256.879, 572.642 256.248, 568.896 253 C 566.675 251.075, 563.395 248.037, 561.608 246.250 C 559.820 244.463, 558.052 243, 557.679 243 C 557.306 243, 557 244.575, 557 246.500 M 528.667 264.667 C 528.300 265.033, 528 266.158, 528 267.167 C 528 268.537, 528.758 269, 531 269 C 534.297 269, 534.604 268.379, 532.608 265.750 C 531.222 263.924, 529.800 263.533, 528.667 264.667" stroke="none" fill="#fbfbfb" fill-rule="evenodd"/></svg>